<svg width="157" height="46" viewBox="0 0 157 46" fill="none" xmlns="http://www.w3.org/2000/svg">
<path d="M14.88 4.02C12.04 5.1 9.84 6.78 8.28 9.06C6.72 11.3 5.94 14.06 5.94 17.34C5.94 18.82 6.08 19.86 6.36 20.46C6.64 21.02 6.78 21.34 6.78 21.42C4.62 21.42 3 20.98 1.92 20.1C0.88 19.18 0.36 17.68 0.36 15.6C0.36 13.04 1.4 10.56 3.48 8.16C5.6 5.72 8.3 3.76 11.58 2.28C14.86 0.759997 18.14 -3.57628e-06 21.42 -3.57628e-06C21.98 -3.57628e-06 22.78 0.0399971 23.82 0.119998L24.36 37.02L36.96 0.299996H44.58L45.12 37.02L57.72 0.299996H61.92L45.24 45H36.6L35.88 14.46L24.48 45H15.84L14.88 4.02ZM66.4748 45.24C63.5148 45.24 61.1748 44.48 59.4548 42.96C57.7348 41.44 56.8748 39.04 56.8748 35.76C56.8748 33.04 57.4348 30.02 58.5548 26.7C59.6748 23.38 61.4748 20.52 63.9548 18.12C66.4348 15.68 69.5548 14.46 73.3148 14.46C78.4348 14.46 80.9948 17.66 80.9948 24.06V24.12C81.1148 24.16 81.3348 24.18 81.6548 24.18C82.9748 24.18 84.4948 23.84 86.2148 23.16C87.9348 22.44 89.4948 21.58 90.8948 20.58L91.4348 22.2C90.2748 23.44 88.7548 24.5 86.8748 25.38C85.0348 26.22 83.0148 26.82 80.8148 27.18C80.4948 30.82 79.6748 34 78.3548 36.72C77.0348 39.44 75.3348 41.54 73.2548 43.02C71.1748 44.5 68.9148 45.24 66.4748 45.24ZM68.8748 39.84C69.8348 39.84 70.7948 39.3 71.7548 38.22C72.7148 37.1 73.5548 35.6 74.2748 33.72C74.9948 31.8 75.5148 29.68 75.8348 27.36C74.7548 27.12 74.2148 26.28 74.2148 24.84C74.2148 23.2 74.8348 22.12 76.0748 21.6C75.9948 20.28 75.7948 19.38 75.4748 18.9C75.1548 18.38 74.5948 18.12 73.7948 18.12C72.4748 18.12 71.1948 19.08 69.9548 21C68.7148 22.92 67.7148 25.22 66.9548 27.9C66.1948 30.58 65.8148 32.94 65.8148 34.98C65.8148 36.9 66.0348 38.2 66.4748 38.88C66.9148 39.52 67.7148 39.84 68.8748 39.84ZM88.162 15H96.802L96.022 18.72C97.382 17.52 98.602 16.6 99.682 15.96C100.802 15.32 102.002 15 103.282 15C104.562 15 105.562 15.44 106.282 16.32C107.042 17.2 107.422 18.26 107.422 19.5C107.422 20.66 107.042 21.68 106.282 22.56C105.522 23.44 104.462 23.88 103.102 23.88C102.222 23.88 101.622 23.68 101.302 23.28C101.022 22.84 100.802 22.22 100.642 21.42C100.522 20.9 100.402 20.52 100.282 20.28C100.162 20.04 99.942 19.92 99.622 19.92C98.782 19.92 98.062 20.1 97.462 20.46C96.902 20.78 96.162 21.36 95.242 22.2L90.442 45H81.802L88.162 15ZM113.841 45.36C111.561 45.36 109.661 44.58 108.141 43.02C106.621 41.46 105.861 39.02 105.861 35.7C105.861 32.74 106.441 29.64 107.601 26.4C108.801 23.12 110.561 20.36 112.881 18.12C115.241 15.84 118.041 14.7 121.281 14.7C122.921 14.7 124.141 14.98 124.941 15.54C125.741 16.1 126.141 16.84 126.141 17.76V18L129.081 4.2L137.961 3L131.061 35.4C130.901 36 130.821 36.64 130.821 37.32C130.821 38.12 131.001 38.7 131.361 39.06C131.761 39.38 132.401 39.54 133.281 39.54C134.401 39.54 135.361 39.06 136.161 38.1C137.001 37.14 137.661 35.86 138.141 34.26H140.661C138.221 41.42 134.201 45 128.601 45C126.961 45 125.621 44.56 124.581 43.68C123.581 42.8 122.961 41.52 122.721 39.84C121.681 41.44 120.421 42.76 118.941 43.8C117.501 44.84 115.801 45.36 113.841 45.36ZM117.741 39.54C118.701 39.54 119.661 39.1 120.621 38.22C121.621 37.34 122.301 36.12 122.661 34.56V34.26L125.601 20.52C125.241 19.12 124.421 18.42 123.141 18.42C121.541 18.42 120.101 19.36 118.821 21.24C117.541 23.08 116.541 25.32 115.821 27.96C115.101 30.56 114.741 32.86 114.741 34.86C114.741 36.86 115.021 38.14 115.581 38.7C116.181 39.26 116.901 39.54 117.741 39.54ZM145.004 45.36C143.084 45.36 141.464 45 140.144 44.28C138.824 43.52 137.844 42.56 137.204 41.4C136.564 40.2 136.244 38.96 136.244 37.68C136.244 36.36 136.564 35.22 137.204 34.26C137.804 33.26 138.544 32.54 139.424 32.1C140.984 29.3 142.344 26.48 143.504 23.64C144.664 20.76 145.764 17.66 146.804 14.34L155.684 13.14C155.884 18.26 156.224 23.8 156.704 29.76C156.904 32.16 157.004 33.9 157.004 34.98C157.004 37.42 156.384 39.42 155.144 40.98C153.904 42.54 152.364 43.66 150.524 44.34C148.724 45.02 146.884 45.36 145.004 45.36ZM143.084 40.62C144.564 40.62 145.804 40.18 146.804 39.3C147.804 38.42 148.304 37 148.304 35.04C148.304 33.84 148.184 32.16 147.944 30C147.544 25.44 147.284 22.38 147.164 20.82C146.204 23.98 144.584 27.76 142.304 32.16C143.224 32.64 143.684 33.34 143.684 34.26C143.684 35.02 143.424 35.7 142.904 36.3C142.424 36.9 141.804 37.2 141.044 37.2C140.204 37.2 139.664 36.94 139.424 36.42C139.424 37.86 139.704 38.92 140.264 39.6C140.864 40.28 141.804 40.62 143.084 40.62Z" fill="#EB5757"/>
</svg>
